<svg width="512" height="512" viewBox="0 0 512 512" fill="none" xmlns="http://www.w3.org/2000/svg">
  <!-- Background Circle -->
  <circle cx="256" cy="256" r="256" fill="#2563eb"/>
  
  <!-- Building Icon -->
  <g transform="translate(128, 96)">
    <!-- Main Building -->
    <rect x="0" y="80" width="120" height="240" fill="#ffffff" rx="8"/>
    
    <!-- Building Details -->
    <rect x="20" y="100" width="20" height="20" fill="#2563eb" rx="2"/>
    <rect x="50" y="100" width="20" height="20" fill="#2563eb" rx="2"/>
    <rect x="80" y="100" width="20" height="20" fill="#2563eb" rx="2"/>
    
    <rect x="20" y="140" width="20" height="20" fill="#2563eb" rx="2"/>
    <rect x="50" y="140" width="20" height="20" fill="#2563eb" rx="2"/>
    <rect x="80" y="140" width="20" height="20" fill="#2563eb" rx="2"/>
    
    <rect x="20" y="180" width="20" height="20" fill="#2563eb" rx="2"/>
    <rect x="50" y="180" width="20" height="20" fill="#2563eb" rx="2"/>
    <rect x="80" y="180" width="20" height="20" fill="#2563eb" rx="2"/>
    
    <rect x="20" y="220" width="20" height="20" fill="#2563eb" rx="2"/>
    <rect x="50" y="220" width="20" height="20" fill="#2563eb" rx="2"/>
    <rect x="80" y="220" width="20" height="20" fill="#2563eb" rx="2"/>
    
    <!-- Door -->
    <rect x="45" y="260" width="30" height="60" fill="#1e40af" rx="4"/>
    
    <!-- Side Building -->
    <rect x="140" y="120" width="80" height="200" fill="#e5e7eb" rx="6"/>
    
    <!-- Side Building Windows -->
    <rect x="155" y="140" width="15" height="15" fill="#6b7280" rx="1"/>
    <rect x="180" y="140" width="15" height="15" fill="#6b7280" rx="1"/>
    <rect x="205" y="140" width="15" height="15" fill="#6b7280" rx="1"/>
    
    <rect x="155" y="170" width="15" height="15" fill="#6b7280" rx="1"/>
    <rect x="180" y="170" width="15" height="15" fill="#6b7280" rx="1"/>
    <rect x="205" y="170" width="15" height="15" fill="#6b7280" rx="1"/>
    
    <rect x="155" y="200" width="15" height="15" fill="#6b7280" rx="1"/>
    <rect x="180" y="200" width="15" height="15" fill="#6b7280" rx="1"/>
    <rect x="205" y="200" width="15" height="15" fill="#6b7280" rx="1"/>
    
    <!-- Chart/Graph Element -->
    <g transform="translate(30, 40)">
      <rect x="0" y="20" width="8" height="20" fill="#10b981" rx="2"/>
      <rect x="12" y="10" width="8" height="30" fill="#10b981" rx="2"/>
      <rect x="24" y="5" width="8" height="35" fill="#10b981" rx="2"/>
      <rect x="36" y="15" width="8" height="25" fill="#10b981" rx="2"/>
      <rect x="48" y="0" width="8" height="40" fill="#10b981" rx="2"/>
    </g>
  </g>
  
  <!-- Currency Symbol -->
  <g transform="translate(380, 380)">
    <circle cx="20" cy="20" r="18" fill="#fbbf24"/>
    <text x="20" y="28" text-anchor="middle" fill="#ffffff" font-family="Arial, sans-serif" font-size="20" font-weight="bold">DH</text>
  </g>
</svg>
